<?xml version="1.0" encoding="iso-8859-1"?>
<!-- Generator: Adobe Illustrator 19.0.0, SVG Export Plug-In . SVG Version: 6.00 Build 0)  -->
<svg version="1.1" id="Layer_1" xmlns="http://www.w3.org/2000/svg" xmlns:xlink="http://www.w3.org/1999/xlink" x="0px" y="0px"
	 viewBox="0 0 481.6 481.6" style="enable-background:new 0 0 481.6 481.6;" xml:space="preserve">
<path style="fill:#797C7C;" d="M348.8,403.2c-11.2,0-20-8.8-20-20v-284c0-32-40-59.2-88-59.2s-88,27.2-88,59.2v88
	c0,11.2-8.8,20-20,20s-20-8.8-20-20v-88C112.8,44,169.6,0,240.8,0s128,44.8,128,99.2v283.2C368.8,394.4,360,403.2,348.8,403.2z"/>
<path style="fill:#4D5151;" d="M408.8,453.6c0,16-12.8,28-28,28h-280c-16,0-28-12.8-28-28v-192c0-16,12.8-28,28-28H380
	c16,0,28,12.8,28,28v192H408.8z"/>
<path style="fill:#393D3D;" d="M72.8,264c0-18.4,12.8-30.4,28-30.4H380c16,0,28,12.8,28,28v192.8c0,16-12.8,26.4-28,26.4"/>
<path style="fill:#5A6060;" d="M240,0c-52,0-95.2,24-116,58.4l32.8,23.2c12-23.2,44.8-40.8,83.2-40.8c48,0,88.8,27.2,88.8,59.2v104
	l40,28.8V99.2C368.8,44.8,311.2,0,240,0z"/>
<path style="fill:#202323;" d="M274.4,348c0-17.6-15.2-32-32.8-32c-17.6,0-34.4,14.4-34.4,32c0,13.6,9.6,24.8,17.6,29.6v24
	c0,6.4,9.6,12,16,12s16-5.6,16-12v-24C264.8,372.8,274.4,361.6,274.4,348z"/>
<path style="fill:#1BCEB8;" d="M274.4,343.2c0-17.6-15.2-32-32.8-32c-17.6,0-34.4,14.4-34.4,32c0,13.6,9.6,24.8,17.6,29.6v24
	c0,6.4,9.6,12,16,12s16-5.6,16-12v-24C264.8,368,274.4,356.8,274.4,343.2z"/>
<path style="fill:#08B5AC;" d="M240.8,311.2c-17.6,0-33.6,14.4-33.6,32c0,13.6,9.6,24.8,17.6,29.6v0.8l32,20v-20.8
	c8-4.8,17.6-16,17.6-29.6C274.4,325.6,258.4,311.2,240.8,311.2z"/>
<path style="fill:#202323;" d="M408.8,454.4c0,16-11.2,27.2-28,27.2h-280c-16,0-28-12-28-28"/>
<g>
</g>
<g>
</g>
<g>
</g>
<g>
</g>
<g>
</g>
<g>
</g>
<g>
</g>
<g>
</g>
<g>
</g>
<g>
</g>
<g>
</g>
<g>
</g>
<g>
</g>
<g>
</g>
<g>
</g>
</svg>
